<?xml version="1.0" encoding="UTF-8"?>
<svg xmlns="http://www.w3.org/2000/svg" xmlns:xlink="http://www.w3.org/1999/xlink" width="1505.1375pt" height="992.60196pt" viewBox="0 0 1505.1375 992.60196" version="1.1">
<g id="surface1">
<path style=" stroke:none;fill-rule:nonzero;fill:rgb(0%,0%,0%);fill-opacity:1;" d="M 865.011719 -1.730469 C 863.886719 0.0195312 863.261719 0.144531 861.011719 -1.230469 C 858.761719 -2.605469 857.886719 -2.480469 854.011719 -0.105469 C 849.511719 2.644531 849.511719 2.644531 847.386719 0.269531 C 845.386719 -2.105469 845.261719 -2.105469 840.261719 0.394531 C 835.636719 2.519531 834.261719 2.644531 827.761719 1.519531 C 822.386719 0.519531 819.761719 0.519531 818.261719 1.519531 C 816.511719 2.519531 815.011719 2.394531 812.136719 1.019531 C 808.511719 -0.855469 808.136719 -0.855469 806.386719 1.769531 C 804.761719 3.894531 804.261719 4.144531 803.261719 2.644531 C 802.386719 1.269531 801.636719 1.144531 800.261719 2.269531 C 798.261719 4.019531 786.886719 3.394531 785.761719 1.519531 C 785.261719 0.769531 782.511719 0.144531 779.511719 0.269531 C 774.886719 0.269531 774.261719 0.644531 774.761719 2.644531 C 775.136719 4.019531 774.886719 5.019531 774.261719 5.019531 C 773.636719 5.019531 773.136719 4.519531 773.136719 3.894531 C 773.136719 2.269531 766.511719 1.269531 764.761719 2.769531 C 763.886719 3.394531 762.011719 3.644531 760.511719 3.144531 C 758.886719 2.519531 757.386719 2.894531 756.761719 3.894531 C 756.011719 5.269531 755.261719 5.269531 752.761719 3.894531 C 750.136719 2.519531 747.886719 2.644531 738.886719 4.394531 C 732.511719 5.644531 726.011719 6.269531 723.011719 5.769531 C 720.386719 5.394531 718.136719 5.394531 718.136719 5.894531 C 718.136719 7.269531 711.761719 10.019531 710.511719 9.269531 C 709.136719 8.394531 688.136719 13.644531 686.011719 15.269531 C 684.386719 16.644531 669.511719 19.144531 663.511719 19.144531 C 661.261719 19.144531 659.386719 19.644531 659.386719 20.269531 C 659.386719 20.769531 658.011719 21.269531 656.261719 21.269531 C 654.511719 21.269531 652.136719 21.769531 650.886719 22.394531 C 648.011719 23.769531 636.636719 27.644531 634.386719 27.894531 C 633.386719 28.144531 630.636719 29.144531 628.386719 30.394531 C 626.136719 31.644531 623.761719 32.269531 623.261719 31.894531 C 622.636719 31.519531 620.386719 32.644531 618.261719 34.394531 C 615.511719 36.769531 612.886719 37.644531 608.261719 37.894531 C 603.886719 38.019531 601.886719 38.644531 601.886719 39.769531 C 601.886719 40.769531 600.636719 41.394531 599.136719 41.269531 C 594.261719 40.769531 593.136719 41.144531 590.511719 44.269531 C 588.261719 46.894531 587.386719 47.144531 584.761719 45.894531 C 582.636719 45.019531 581.386719 44.894531 580.886719 45.894531 C 580.386719 46.519531 578.386719 47.519531 576.511719 48.019531 C 574.011719 48.644531 573.136719 49.394531 573.636719 50.644531 C 574.136719 52.144531 573.136719 52.519531 568.636719 52.519531 C 565.511719 52.519531 561.511719 53.269531 559.636719 54.269531 C 557.761719 55.269531 554.011719 56.519531 551.386719 57.019531 C 548.636719 57.519531 545.011719 58.644531 543.261719 59.519531 C 541.511719 60.519531 539.011719 61.269531 537.886719 61.269531 C 536.761719 61.269531 535.386719 61.894531 535.011719 62.519531 C 534.511719 63.269531 532.261719 63.769531 530.011719 63.519531 C 527.761719 63.394531 525.011719 64.019531 524.011719 64.894531 C 522.011719 66.519531 509.761719 68.894531 501.261719 69.394531 C 498.511719 69.519531 496.011719 69.769531 495.636719 69.894531 C 495.261719 70.019531 492.636719 70.269531 489.761719 70.394531 C 486.886719 70.519531 484.136719 71.144531 483.636719 71.644531 C 483.136719 72.144531 481.261719 72.519531 479.386719 72.519531 C 477.511719 72.519531 475.636719 72.894531 475.261719 73.394531 C 474.761719 73.894531 472.011719 74.144531 469.261719 74.144531 C 466.011719 74.144531 463.886719 74.644531 463.511719 75.769531 C 463.136719 76.894531 461.011719 77.519531 458.136719 77.519531 C 454.511719 77.519531 453.261719 78.019531 452.761719 80.019531 C 452.386719 81.644531 451.011719 82.519531 449.136719 82.519531 C 447.136719 82.519531 445.386719 84.019531 443.261719 87.394531 C 440.261719 92.144531 440.136719 92.269531 432.386719 92.394531 C 427.136719 92.394531 423.136719 93.269531 420.136719 94.894531 C 417.761719 96.269531 413.636719 97.769531 411.011719 98.269531 C 408.386719 98.769531 405.886719 99.769531 405.386719 100.394531 C 405.011719 101.144531 402.386719 101.769531 399.636719 102.019531 C 396.886719 102.144531 394.136719 102.519531 393.636719 102.894531 C 393.011719 103.144531 390.511719 103.894531 388.136719 104.394531 C 380.761719 105.769531 379.386719 106.394531 379.386719 108.144531 C 379.386719 112.894531 329.136719 127.269531 303.011719 130.019531 C 267.386719 133.644531 249.636719 140.269531 214.886719 162.644531 C 208.511719 166.769531 202.136719 170.019531 200.261719 170.019531 C 196.761719 170.019531 177.261719 174.394531 172.136719 176.394531 C 170.261719 177.144531 163.761719 178.894531 157.511719 180.144531 C 150.636719 181.644531 144.011719 184.019531 140.636719 186.269531 C 137.511719 188.144531 132.511719 190.519531 129.386719 191.269531 C 126.386719 192.144531 121.636719 194.269531 118.761719 196.269531 C 116.011719 198.144531 112.386719 200.144531 110.636719 200.644531 C 108.886719 201.144531 105.261719 203.144531 102.511719 205.019531 C 99.761719 206.769531 94.886719 209.894531 91.636719 211.644531 C 82.261719 217.019531 69.511719 230.644531 61.011719 244.394531 C 53.136719 257.144531 50.511719 263.144531 48.011719 274.769531 C 46.761719 281.019531 46.261719 281.644531 41.136719 283.769531 C 34.511719 286.644531 34.011719 288.144531 40.011719 287.144531 C 44.261719 286.394531 44.386719 286.519531 43.511719 289.769531 C 42.386719 294.519531 37.386719 300.769531 31.511719 304.769531 C 27.261719 307.519531 25.886719 309.644531 23.636719 315.894531 C 22.261719 320.144531 20.261719 324.644531 19.261719 325.769531 C 17.636719 327.769531 17.761719 327.769531 20.261719 326.519531 C 21.886719 325.519531 24.136719 322.019531 25.761719 317.394531 C 28.011719 311.144531 29.261719 309.519531 33.261719 307.394531 C 39.386719 304.394531 40.511719 304.394531 36.511719 307.519531 C 34.886719 308.894531 33.011719 311.519531 32.511719 313.394531 C 32.136719 315.269531 30.386719 318.394531 28.636719 320.394531 C 27.011719 322.394531 25.511719 324.894531 25.511719 326.019531 C 25.386719 327.144531 25.261719 330.144531 25.136719 332.519531 C 25.011719 334.894531 24.386719 337.894531 23.886719 339.019531 C 22.386719 342.269531 25.261719 341.894531 27.011719 338.644531 C 27.761719 337.144531 28.011719 334.269531 27.636719 332.269531 C 27.011719 329.019531 29.386719 321.894531 31.761719 320.019531 C 32.261719 319.644531 33.886719 317.394531 35.386719 315.019531 C 38.511719 310.019531 39.011719 311.769531 36.261719 318.269531 C 35.261719 320.769531 33.761719 326.519531 33.011719 331.019531 C 32.011719 337.019531 30.761719 340.144531 28.761719 341.894531 C 26.636719 343.769531 25.761719 346.269531 25.136719 351.894531 C 24.636719 357.019531 24.761719 358.769531 25.636719 357.519531 C 26.261719 356.519531 26.886719 353.519531 26.886719 351.019531 C 26.886719 347.394531 27.636719 345.894531 30.011719 344.269531 C 31.761719 343.144531 33.136719 341.269531 33.136719 340.019531 C 33.136719 338.894531 34.511719 335.394531 36.011719 332.394531 C 37.636719 329.394531 39.636719 324.769531 40.511719 322.269531 C 41.386719 319.644531 42.511719 317.269531 43.136719 316.894531 C 44.886719 315.894531 42.386719 324.144531 39.261719 330.019531 C 37.636719 333.144531 36.136719 337.019531 36.011719 338.769531 C 35.761719 340.519531 34.886719 348.394531 34.011719 356.269531 C 33.011719 364.144531 32.386719 370.769531 32.636719 371.019531 C 33.136719 371.769531 35.511719 363.019531 36.261719 356.894531 C 36.761719 353.394531 37.761719 348.394531 38.511719 345.644531 L 39.886719 340.644531 L 40.761719 348.769531 C 41.761719 358.519531 38.886719 381.269531 35.386719 391.769531 C 32.636719 400.144531 29.386719 417.644531 30.761719 416.769531 C 31.261719 416.519531 32.136719 413.519531 32.636719 410.269531 C 33.011719 407.019531 34.761719 401.019531 36.386719 396.894531 C 37.886719 392.769531 40.511719 384.644531 42.136719 378.769531 L 45.011719 368.144531 L 45.636719 374.394531 C 46.011719 378.644531 45.636719 382.269531 44.261719 385.644531 C 43.011719 388.394531 41.761719 393.144531 41.261719 396.269531 C 40.761719 399.394531 39.636719 403.269531 38.761719 405.019531 C 37.886719 406.769531 36.886719 411.519531 36.386719 415.644531 C 35.886719 419.644531 35.261719 424.519531 35.011719 426.269531 C 34.386719 429.144531 34.511719 429.019531 36.136719 425.644531 C 37.261719 423.519531 38.011719 420.519531 38.136719 418.769531 C 38.136719 415.269531 44.761719 395.019531 46.886719 391.644531 C 48.261719 389.394531 48.261719 389.769531 46.261719 405.019531 L 45.636719 409.394531 L 47.511719 405.644531 C 50.386719 399.644531 49.886719 406.019531 47.011719 412.644531 C 45.636719 415.644531 44.261719 420.144531 43.761719 422.644531 C 42.886719 427.394531 38.511719 433.144531 34.636719 434.269531 C 33.386719 434.769531 31.011719 436.769531 29.511719 438.894531 C 26.386719 443.144531 26.886719 442.894531 36.011719 436.269531 C 42.636719 431.519531 48.886719 422.644531 50.136719 416.519531 C 51.261719 411.144531 53.136719 411.394531 53.136719 416.894531 C 53.136719 423.519531 39.261719 443.769531 34.886719 443.769531 C 34.011719 443.769531 29.011719 446.019531 23.761719 448.769531 C 18.511719 451.519531 12.636719 453.769531 10.511719 453.769531 C 7.011719 453.769531 -6.488281 459.644531 -5.363281 460.644531 C -5.113281 460.894531 -1.113281 459.769531 3.511719 458.144531 C 8.136719 456.394531 13.386719 455.019531 15.011719 455.019531 C 20.011719 455.019531 44.636719 441.644531 49.011719 436.519531 L 53.011719 431.894531 L 51.386719 436.644531 C 50.511719 439.269531 47.886719 443.269531 45.636719 445.644531 C 41.386719 450.144531 41.636719 451.769531 45.886719 447.894531 C 48.261719 445.769531 48.261719 445.894531 47.386719 449.394531 C 46.386719 453.769531 44.136719 458.644531 40.261719 465.519531 C 37.011719 471.269531 30.761719 474.894531 17.011719 479.019531 C 11.886719 480.519531 8.386719 482.019531 9.261719 482.269531 C 10.011719 482.519531 13.136719 481.894531 16.261719 480.894531 C 20.011719 479.519531 21.886719 479.394531 22.261719 480.394531 C 23.636719 484.519531 45.011719 468.644531 49.261719 460.144531 C 50.636719 457.644531 52.886719 454.519531 54.386719 453.144531 L 57.261719 450.644531 L 56.261719 453.769531 C 55.011719 458.019531 51.261719 464.019531 48.136719 466.894531 C 46.761719 468.144531 45.636719 469.644531 45.636719 470.394531 C 45.636719 472.769531 56.886719 459.269531 59.511719 453.519531 C 62.511719 447.394531 67.761719 444.019531 66.136719 449.144531 C 65.761719 450.644531 64.011719 454.019531 62.386719 456.519531 C 58.636719 462.269531 58.511719 463.644531 62.011719 460.519531 C 65.886719 457.019531 69.636719 448.894531 68.886719 445.769531 C 68.511719 444.269531 69.011719 441.769531 70.136719 440.269531 C 72.136719 437.394531 75.886719 409.519531 75.511719 401.394531 C 75.261719 398.894531 75.761719 395.769531 76.511719 394.394531 C 78.761719 390.144531 75.386719 375.269531 69.386719 363.269531 C 63.386719 351.144531 62.011719 343.519531 62.011719 318.644531 C 61.761719 290.269531 68.761719 265.144531 80.886719 249.644531 C 86.761719 242.269531 104.261719 231.394531 108.136719 232.769531 C 108.886719 233.019531 107.886719 235.644531 105.636719 239.019531 C 100.136719 247.394531 88.636719 276.644531 85.761719 289.644531 C 84.386719 295.644531 83.011719 307.144531 82.511719 315.019531 C 81.761719 327.644531 82.011719 331.644531 85.011719 347.519531 C 88.761719 367.769531 100.011719 403.019531 108.011719 420.019531 C 110.761719 425.894531 117.011719 438.269531 121.886719 447.519531 C 131.886719 466.644531 139.386719 490.269531 139.386719 502.519531 C 139.386719 515.019531 134.886719 529.394531 127.136719 541.894531 C 116.386719 559.269531 98.511719 579.644531 88.011719 586.394531 C 82.636719 589.769531 82.011719 590.769531 79.386719 599.769531 C 77.761719 605.019531 76.011719 614.144531 75.511719 620.019531 C 75.011719 626.144531 73.011719 635.769531 70.761719 642.894531 C 65.511719 658.769531 63.136719 671.769531 63.136719 683.269531 C 63.136719 688.394531 61.261719 703.769531 58.886719 717.519531 C 55.386719 737.644531 53.761719 743.769531 50.511719 750.269531 C 47.386719 756.394531 46.261719 760.644531 45.511719 768.894531 C 45.011719 774.769531 43.386719 782.644531 42.011719 786.394531 C 40.636719 790.144531 38.886719 795.644531 38.136719 798.769531 C 37.386719 801.894531 35.136719 806.394531 33.261719 808.769531 C 24.136719 820.394531 20.011719 829.519531 21.886719 834.394531 C 23.011719 837.269531 23.761719 837.519531 30.636719 837.519531 C 37.386719 837.519531 38.261719 837.894531 40.261719 840.894531 C 44.011719 846.519531 44.386719 860.394531 41.011719 869.769531 C 37.761719 878.769531 37.386719 884.019531 39.886719 886.144531 C 40.886719 886.894531 44.386719 887.894531 47.636719 888.269531 L 53.761719 889.019531 L 53.761719 896.519531 C 53.761719 903.769531 53.886719 904.144531 59.136719 908.894531 C 68.136719 916.894531 75.011719 918.644531 99.886719 919.519531 C 124.261719 920.519531 127.761719 920.019531 129.386719 915.644531 C 130.011719 913.894531 131.636719 912.519531 132.886719 912.519531 C 139.011719 912.519531 140.011719 904.144531 134.636719 896.769531 C 132.636719 894.144531 129.386719 890.144531 127.386719 888.144531 C 125.261719 886.019531 121.261719 880.394531 118.386719 875.519531 C 113.136719 866.519531 104.386719 857.269531 99.636719 855.769531 C 96.636719 854.769531 96.386719 854.144531 93.761719 841.519531 C 91.136719 828.644531 91.386719 807.144531 94.386719 791.894531 C 102.761719 748.644531 107.386719 733.519531 121.511719 702.519531 C 130.636719 682.519531 149.386719 656.894531 164.761719 643.519531 C 175.761719 633.769531 188.761719 621.019531 194.136719 614.394531 L 198.261719 609.394531 L 197.511719 625.519531 C 197.011719 634.269531 195.886719 644.394531 195.011719 648.019531 C 194.011719 651.519531 191.261719 661.644531 188.886719 670.394531 C 183.636719 689.269531 183.011719 686.769531 198.011719 707.519531 C 203.261719 714.769531 215.636719 734.644531 225.511719 751.894531 C 235.386719 769.019531 248.761719 791.894531 255.011719 802.519531 C 268.011719 824.269531 287.011719 859.769531 289.136719 866.019531 C 290.136719 869.019531 290.261719 873.769531 289.386719 882.769531 C 287.636719 900.394531 288.261719 901.144531 304.261719 903.644531 C 313.761719 905.144531 318.136719 907.769531 318.136719 911.769531 C 318.136719 915.519531 320.761719 917.769531 331.261719 922.769531 L 340.011719 926.894531 L 366.886719 926.894531 C 398.011719 926.894531 399.636719 926.394531 401.136719 917.519531 C 402.136719 911.144531 398.886719 903.894531 387.886719 888.394531 C 382.511719 880.894531 378.136719 876.144531 374.261719 873.769531 C 359.386719 864.644531 332.261719 832.894531 312.636719 801.894531 C 297.511719 777.894531 290.011719 762.519531 285.386719 745.894531 C 282.761719 736.394531 282.511719 733.269531 282.511719 702.519531 C 282.511719 674.144531 282.761719 668.894531 284.511719 666.269531 C 285.636719 664.519531 286.886719 660.269531 287.261719 656.894531 C 287.636719 653.394531 288.511719 646.394531 289.261719 641.269531 C 290.011719 636.144531 291.386719 620.644531 292.386719 606.894531 C 293.886719 586.144531 295.011719 578.894531 298.761719 564.394531 C 304.511719 541.894531 312.636719 516.269531 314.761719 513.269531 C 316.386719 511.144531 316.761719 511.144531 324.511719 515.019531 C 334.136719 519.894531 362.511719 539.644531 390.636719 561.144531 C 422.261719 585.394531 420.136719 584.019531 446.886719 596.894531 C 453.386719 600.019531 460.136719 603.394531 461.636719 604.269531 C 466.511719 607.144531 469.511719 613.394531 470.636719 623.644531 C 471.261719 629.644531 473.136719 636.269531 475.511719 641.644531 C 477.636719 646.394531 479.386719 651.144531 479.386719 652.144531 C 479.386719 653.644531 479.761719 653.769531 481.136719 652.644531 C 482.136719 651.769531 483.386719 648.019531 483.886719 644.144531 C 484.511719 638.769531 485.011719 637.644531 485.886719 639.269531 C 487.011719 641.269531 487.261719 641.269531 489.511719 639.269531 C 490.761719 638.144531 491.886719 636.144531 491.886719 634.894531 C 491.886719 633.644531 492.386719 632.394531 493.136719 631.894531 C 493.761719 631.519531 494.011719 630.394531 493.636719 629.519531 C 493.261719 628.644531 494.386719 627.019531 496.011719 625.894531 C 497.636719 624.894531 500.636719 622.269531 502.761719 620.269531 C 506.261719 616.769531 506.386719 616.144531 504.886719 612.769531 C 504.011719 610.644531 503.511719 608.769531 503.761719 608.519531 C 504.011719 608.394531 501.386719 606.144531 498.011719 603.769531 C 493.886719 600.769531 491.886719 598.519531 491.886719 596.519531 C 491.886719 595.019531 492.636719 593.769531 493.636719 593.769531 C 494.511719 593.769531 496.011719 592.894531 496.886719 591.894531 C 499.011719 589.394531 504.886719 589.394531 503.886719 591.894531 C 502.886719 594.644531 505.261719 594.144531 509.886719 590.644531 C 512.261719 588.894531 514.886719 587.769531 516.011719 588.269531 C 517.011719 588.644531 519.261719 588.269531 520.886719 587.394531 C 522.386719 586.519531 527.636719 585.769531 532.511719 585.644531 C 540.886719 585.394531 544.511719 584.394531 552.261719 580.519531 C 556.511719 578.394531 560.636719 578.269531 560.636719 580.144531 C 560.636719 580.894531 562.386719 580.144531 564.511719 578.644531 C 567.761719 576.394531 568.636719 576.269531 569.511719 577.644531 C 570.136719 578.644531 570.636719 578.894531 570.636719 578.269531 C 570.636719 577.644531 571.511719 577.894531 572.511719 578.769531 C 573.511719 579.644531 574.386719 580.144531 574.511719 579.894531 C 574.511719 579.644531 574.761719 578.394531 575.011719 577.144531 C 575.261719 575.769531 575.761719 574.519531 576.136719 574.144531 C 577.636719 572.644531 596.136719 568.894531 596.886719 570.019531 C 597.261719 570.519531 600.386719 571.269531 603.761719 571.519531 C 607.261719 571.769531 610.386719 572.394531 610.886719 573.019531 C 611.386719 573.769531 613.886719 573.519531 617.136719 572.519531 C 620.136719 571.519531 625.011719 570.644531 628.136719 570.519531 C 631.261719 570.394531 637.136719 570.019531 641.261719 569.769531 C 651.511719 569.019531 652.761719 569.644531 649.136719 573.519531 L 646.261719 576.644531 L 650.636719 575.769531 C 659.386719 574.144531 669.636719 573.519531 670.511719 574.519531 C 671.761719 576.269531 680.636719 580.144531 681.886719 579.394531 C 682.386719 579.019531 683.261719 579.644531 683.636719 580.769531 C 684.136719 582.144531 685.261719 582.519531 687.511719 582.019531 C 691.136719 581.144531 695.636719 583.519531 695.636719 586.519531 C 695.636719 587.644531 694.136719 589.769531 692.261719 591.144531 L 688.761719 593.769531 L 695.636719 593.019531 C 699.386719 592.519531 703.886719 591.644531 705.511719 591.019531 C 707.886719 590.144531 708.261719 590.269531 707.636719 592.019531 C 707.011719 593.644531 707.386719 593.894531 709.886719 593.269531 C 711.511719 592.894531 713.761719 592.269531 714.761719 591.769531 C 716.011719 591.394531 716.886719 592.144531 717.386719 594.269531 C 718.011719 596.769531 719.011719 597.394531 722.886719 597.769531 C 726.386719 598.019531 727.511719 598.644531 727.386719 600.269531 C 727.136719 602.894531 727.511719 603.019531 730.636719 601.269531 C 732.636719 600.144531 732.886719 600.269531 732.261719 602.019531 C 731.636719 603.644531 732.386719 603.894531 735.761719 603.769531 C 743.136719 603.394531 743.511719 603.519531 742.636719 607.144531 C 742.011719 609.269531 742.261719 610.769531 743.386719 611.394531 C 744.636719 612.144531 744.261719 613.769531 741.886719 618.394531 C 737.636719 626.644531 737.636719 626.769531 739.261719 625.769531 C 741.511719 624.269531 740.886719 630.269531 738.261719 634.519531 C 737.011719 636.644531 733.636719 640.769531 730.761719 643.769531 C 728.011719 646.644531 726.011719 649.644531 726.386719 650.269531 C 726.761719 650.894531 726.136719 652.519531 724.886719 653.894531 C 722.886719 656.144531 722.886719 656.269531 724.761719 655.519531 C 725.886719 655.144531 726.886719 654.394531 726.886719 653.894531 C 726.886719 652.769531 734.386719 648.394531 735.136719 649.144531 C 736.011719 650.019531 725.261719 659.144531 718.886719 662.894531 C 715.636719 664.769531 713.261719 666.769531 713.636719 667.394531 C 714.136719 668.019531 710.636719 672.019531 706.011719 676.144531 L 697.511719 683.769531 L 704.386719 681.394531 C 708.136719 680.019531 711.511719 679.144531 711.761719 679.394531 C 712.011719 679.644531 710.511719 682.894531 708.511719 686.519531 C 704.511719 693.644531 702.886719 700.894531 702.636719 713.519531 C 702.511719 719.394531 702.761719 721.144531 704.011719 720.769531 C 706.511719 719.769531 705.886719 723.269531 702.386719 730.394531 C 699.386719 736.394531 699.261719 736.644531 701.761719 734.519531 C 704.386719 732.144531 704.386719 732.144531 704.386719 735.144531 C 704.386719 736.769531 702.886719 739.269531 701.011719 740.894531 C 696.386719 744.519531 700.136719 744.894531 704.886719 741.144531 L 708.136719 738.644531 L 708.136719 741.519531 C 708.261719 744.394531 708.261719 744.394531 710.136719 741.894531 L 712.136719 739.394531 L 711.511719 741.894531 C 709.886719 748.019531 709.386719 753.769531 710.386719 753.769531 C 711.636719 753.769531 716.011719 747.894531 717.386719 744.394531 C 719.011719 740.269531 719.636719 744.394531 718.261719 749.644531 C 717.511719 752.269531 716.886719 756.144531 716.886719 758.269531 C 716.886719 760.269531 716.136719 763.019531 715.261719 764.269531 C 714.386719 765.519531 713.886719 768.394531 714.136719 770.894531 L 714.761719 775.394531 L 717.011719 772.394531 C 718.386719 770.644531 719.386719 770.144531 719.386719 771.144531 C 719.386719 772.019531 720.136719 772.519531 721.261719 772.019531 C 722.511719 771.519531 723.136719 772.144531 723.136719 774.019531 C 723.136719 776.644531 723.136719 776.644531 725.011719 774.269531 C 726.636719 772.144531 726.761719 772.144531 726.886719 774.019531 C 726.886719 775.144531 726.261719 779.019531 725.511719 782.519531 C 724.761719 786.019531 724.511719 790.394531 725.011719 792.269531 C 725.761719 795.394531 726.011719 795.394531 727.386719 793.394531 C 729.761719 790.269531 730.636719 790.769531 730.761719 795.269531 L 730.886719 799.394531 L 732.261719 796.019531 C 734.261719 790.894531 735.011719 791.769531 735.261719 799.019531 C 735.386719 802.644531 736.136719 805.769531 736.886719 806.019531 C 737.511719 806.269531 738.136719 807.269531 738.136719 808.269531 C 738.136719 809.394531 738.761719 809.769531 739.386719 809.394531 C 740.136719 809.019531 740.636719 807.269531 740.636719 805.769531 C 740.636719 803.519531 741.511719 802.644531 744.136719 802.144531 C 748.511719 801.269531 748.886719 801.769531 746.386719 805.644531 C 745.136719 807.519531 744.386719 809.519531 744.636719 810.144531 C 745.261719 812.144531 756.511719 801.519531 760.761719 794.894531 C 762.886719 791.519531 764.886719 788.769531 765.261719 788.769531 C 765.511719 788.769531 765.386719 790.644531 764.886719 792.769531 C 764.136719 796.394531 764.261719 796.644531 766.011719 795.144531 C 767.136719 794.269531 768.636719 793.894531 769.386719 794.394531 C 770.886719 795.394531 771.011719 801.519531 769.511719 803.144531 C 768.886719 803.894531 768.011719 805.769531 767.636719 807.519531 C 766.761719 810.394531 767.011719 810.269531 770.386719 806.394531 L 773.886719 802.269531 L 774.011719 812.644531 C 774.261719 827.769531 771.636719 841.769531 764.136719 865.894531 C 761.886719 873.019531 761.886719 878.519531 764.136719 878.894531 C 764.636719 879.019531 767.386719 879.269531 770.386719 879.269531 C 777.011719 879.644531 778.511719 881.519531 777.386719 888.144531 C 775.011719 903.144531 775.886719 905.769531 785.761719 911.894531 C 797.261719 919.269531 812.886719 922.519531 836.636719 922.519531 C 846.886719 922.519531 848.386719 922.269531 850.886719 919.769531 C 852.511719 918.144531 854.886719 916.269531 856.261719 915.644531 C 859.511719 913.894531 860.136719 907.894531 857.511719 901.769531 C 856.386719 899.019531 854.386719 893.644531 853.011719 889.519531 C 851.636719 885.519531 849.136719 880.144531 847.386719 877.644531 C 845.761719 875.269531 844.386719 872.394531 844.386719 871.394531 C 844.386719 870.394531 841.636719 863.394531 838.261719 855.769531 C 832.761719 843.394531 831.761719 840.144531 830.011719 826.019531 C 827.136719 802.019531 828.011719 793.769531 837.011719 768.144531 C 841.011719 756.394531 846.011719 743.019531 848.011719 738.269531 L 851.636719 729.519531 L 853.386719 733.894531 C 854.386719 736.269531 855.636719 739.644531 856.011719 741.519531 C 856.511719 743.394531 858.011719 745.519531 859.386719 746.269531 C 862.261719 747.769531 862.511719 747.144531 860.511719 743.519531 C 858.636719 740.019531 859.636719 739.644531 864.261719 742.019531 C 867.761719 743.769531 868.261719 744.644531 867.886719 747.644531 C 867.261719 751.644531 868.636719 752.519531 869.886719 749.144531 C 870.636719 747.269531 871.011719 747.394531 872.511719 750.019531 C 873.511719 751.769531 874.886719 754.519531 875.636719 756.144531 C 876.386719 757.769531 877.636719 758.769531 878.636719 758.394531 C 879.636719 758.019531 880.636719 758.769531 881.011719 760.269531 C 881.386719 761.644531 882.261719 762.394531 883.011719 761.894531 C 883.761719 761.519531 884.386719 761.769531 884.386719 762.519531 C 884.386719 765.019531 892.761719 772.269531 896.761719 773.144531 C 900.261719 773.894531 900.636719 773.644531 900.636719 771.019531 C 900.761719 768.269531 900.761719 768.269531 902.511719 770.394531 C 903.386719 771.769531 903.886719 773.519531 903.636719 774.269531 C 902.886719 776.394531 906.386719 779.394531 907.511719 777.519531 C 907.886719 776.894531 908.761719 776.269531 909.511719 776.269531 C 911.511719 776.269531 910.761719 779.894531 908.011719 782.644531 C 906.636719 784.019531 905.761719 785.519531 906.011719 785.894531 C 906.386719 786.144531 907.886719 785.269531 909.261719 783.894531 C 910.761719 782.394531 912.386719 781.269531 912.886719 781.269531 C 913.511719 781.269531 914.886719 779.269531 916.011719 776.894531 C 918.011719 772.644531 920.636719 771.019531 920.636719 773.894531 C 920.636719 774.644531 921.511719 775.019531 922.511719 774.519531 C 923.511719 774.144531 924.386719 774.519531 924.386719 775.269531 C 924.386719 776.144531 925.136719 775.769531 926.011719 774.394531 C 927.636719 772.394531 927.636719 772.519531 927.136719 776.394531 C 926.761719 778.769531 924.261719 783.644531 921.511719 787.269531 C 918.761719 790.894531 916.886719 794.144531 917.136719 794.519531 C 917.511719 794.894531 919.761719 792.769531 922.011719 789.769531 C 926.261719 784.269531 928.136719 782.519531 929.636719 782.519531 C 930.761719 782.519531 928.636719 789.894531 926.761719 792.019531 C 926.011719 793.019531 925.886719 793.769531 926.386719 793.769531 C 927.011719 793.769531 928.886719 791.519531 930.636719 788.769531 C 934.636719 782.394531 935.261719 783.269531 932.011719 790.894531 C 929.386719 796.769531 929.386719 796.894531 931.886719 793.894531 C 934.386719 791.019531 934.511719 791.019531 936.261719 793.269531 C 938.011719 795.519531 938.011719 795.519531 938.136719 793.019531 C 938.136719 791.519531 939.011719 788.269531 940.136719 785.644531 C 942.511719 779.894531 944.386719 781.144531 945.261719 789.144531 C 945.761719 793.144531 946.636719 795.019531 948.136719 795.394531 C 949.386719 795.769531 950.761719 797.644531 951.261719 799.894531 C 952.761719 806.769531 954.761719 803.519531 955.011719 793.644531 C 955.386719 781.644531 955.386719 781.269531 956.761719 781.269531 C 957.886719 781.269531 961.386719 790.269531 963.136719 797.519531 C 964.136719 801.894531 964.136719 801.894531 964.261719 798.144531 C 964.261719 796.019531 963.511719 791.769531 962.511719 788.519531 C 961.511719 785.144531 960.886719 782.519531 961.011719 782.394531 C 961.136719 782.394531 962.761719 782.144531 964.636719 781.894531 C 967.636719 781.519531 968.011719 781.894531 968.761719 786.394531 C 969.261719 789.019531 970.136719 791.269531 970.761719 791.269531 C 971.761719 791.269531 972.511719 785.894531 971.886719 783.144531 C 970.386719 777.269531 970.386719 776.019531 972.011719 776.519531 C 973.011719 776.894531 974.011719 778.144531 974.261719 779.519531 C 974.386719 780.769531 975.511719 782.894531 976.636719 784.144531 C 978.511719 786.144531 978.261719 787.019531 974.636719 794.519531 C 972.386719 798.894531 970.636719 803.894531 970.636719 805.394531 C 970.636719 807.019531 969.511719 809.519531 968.136719 811.019531 C 964.636719 814.644531 965.011719 816.269531 969.136719 815.644531 C 971.011719 815.394531 974.886719 814.769531 977.886719 814.269531 C 982.886719 813.519531 983.136719 813.519531 983.136719 816.644531 C 983.136719 819.769531 979.886719 826.894531 975.136719 834.019531 C 972.011719 838.769531 973.261719 843.019531 978.386719 845.019531 C 980.636719 845.769531 983.386719 846.894531 984.386719 847.394531 C 987.261719 848.894531 987.386719 857.519531 984.511719 864.269531 C 982.136719 869.769531 982.011719 870.519531 983.761719 873.894531 C 985.886719 877.894531 993.886719 884.269531 1000.386719 887.019531 C 1006.136719 889.394531 1033.511719 895.894531 1042.011719 896.894531 C 1049.386719 897.644531 1055.636719 895.894531 1055.636719 893.019531 C 1055.636719 892.019531 1057.136719 891.019531 1059.136719 890.519531 C 1066.011719 889.019531 1066.011719 889.019531 1065.261719 883.144531 C 1064.761719 880.019531 1062.761719 873.144531 1060.636719 867.769531 C 1056.136719 856.269531 1053.136719 842.269531 1053.136719 831.894531 C 1053.136719 827.769531 1051.886719 820.144531 1050.511719 815.019531 C 1049.136719 809.894531 1047.511719 799.269531 1046.886719 791.519531 L 1045.761719 777.269531 L 1038.511719 767.894531 C 1018.886719 742.269531 1018.511719 741.519531 1014.886719 721.019531 C 1014.011719 716.019531 1015.636719 713.269531 1020.136719 712.269531 C 1022.261719 711.769531 1022.261719 711.519531 1019.386719 710.144531 C 1016.386719 708.769531 1016.261719 708.144531 1016.261719 696.519531 C 1016.136719 687.269531 1015.636719 683.394531 1013.886719 680.144531 C 1011.886719 676.394531 1011.761719 675.019531 1013.136719 668.519531 C 1013.886719 664.519531 1014.136719 660.144531 1013.761719 658.894531 C 1013.261719 657.394531 1013.761719 656.269531 1015.136719 655.769531 C 1016.636719 655.144531 1016.886719 654.519531 1016.011719 653.644531 C 1014.511719 652.144531 1016.136719 644.144531 1018.261719 641.894531 C 1018.886719 641.269531 1019.386719 639.144531 1019.386719 637.269531 C 1019.386719 635.394531 1020.011719 633.769531 1020.636719 633.769531 C 1021.386719 633.769531 1021.886719 631.519531 1021.886719 628.769531 C 1021.886719 625.144531 1022.386719 623.769531 1023.761719 623.769531 C 1025.011719 623.769531 1025.636719 622.394531 1025.636719 619.394531 C 1025.636719 614.519531 1026.386719 614.019531 1028.886719 617.144531 C 1030.386719 619.144531 1030.511719 618.769531 1030.636719 614.144531 C 1030.636719 609.019531 1032.386719 606.019531 1033.511719 609.019531 C 1033.761719 609.894531 1034.761719 609.019531 1035.761719 606.894531 C 1036.636719 604.769531 1038.386719 602.144531 1039.636719 600.894531 C 1041.761719 598.769531 1041.886719 598.769531 1041.886719 601.894531 C 1041.886719 603.644531 1041.011719 605.394531 1040.011719 605.769531 C 1036.761719 607.019531 1038.011719 609.644531 1041.886719 609.644531 C 1045.136719 609.644531 1045.761719 609.019531 1046.386719 605.519531 C 1047.386719 600.144531 1050.386719 597.394531 1052.011719 600.269531 C 1052.636719 601.519531 1053.886719 603.144531 1054.886719 604.019531 C 1055.761719 604.894531 1056.761719 606.519531 1057.011719 607.394531 C 1057.386719 608.519531 1058.636719 607.519531 1060.386719 604.394531 C 1062.886719 600.269531 1063.386719 599.894531 1064.761719 601.769531 C 1066.136719 603.519531 1066.636719 603.269531 1069.886719 599.394531 C 1072.761719 596.019531 1073.886719 595.394531 1075.261719 596.394531 C 1076.511719 597.519531 1076.886719 597.269531 1077.011719 595.519531 C 1077.011719 593.269531 1077.136719 593.269531 1078.011719 595.394531 C 1078.761719 597.519531 1079.011719 597.519531 1082.261719 594.894531 C 1084.261719 593.519531 1086.136719 592.519531 1086.511719 592.894531 C 1086.886719 593.269531 1088.511719 593.019531 1090.261719 592.394531 C 1092.886719 591.394531 1093.261719 591.519531 1092.636719 593.144531 C 1091.511719 596.144531 1097.886719 595.519531 1100.636719 592.269531 C 1102.011719 590.644531 1105.136719 587.269531 1107.511719 584.644531 L 1111.886719 579.894531 L 1111.386719 584.019531 C 1111.136719 586.269531 1110.511719 589.144531 1110.011719 590.269531 C 1108.761719 593.519531 1110.636719 593.019531 1114.511719 589.269531 L 1118.011719 585.894531 L 1118.886719 589.269531 C 1119.261719 591.019531 1119.386719 593.769531 1119.011719 595.269531 C 1117.886719 599.519531 1120.011719 596.144531 1121.761719 590.644531 C 1122.761719 587.894531 1124.261719 584.519531 1125.261719 583.144531 C 1126.886719 580.894531 1127.011719 581.269531 1126.136719 586.894531 C 1125.636719 590.269531 1124.761719 594.394531 1124.261719 595.894531 C 1123.636719 597.519531 1123.636719 598.769531 1124.261719 598.769531 C 1125.511719 598.769531 1128.761719 592.144531 1130.011719 587.144531 C 1130.511719 585.269531 1132.011719 583.144531 1133.261719 582.394531 C 1136.136719 580.894531 1136.261719 581.519531 1133.886719 586.019531 C 1132.636719 588.394531 1132.386719 590.894531 1133.011719 593.769531 C 1134.011719 598.144531 1134.761719 597.644531 1136.136719 591.269531 C 1136.511719 589.519531 1137.636719 587.019531 1138.761719 585.644531 C 1140.636719 583.269531 1140.761719 583.644531 1140.136719 591.769531 L 1139.386719 600.394531 L 1142.511719 596.144531 C 1146.636719 590.394531 1149.511719 587.519531 1150.636719 588.144531 C 1151.136719 588.519531 1151.261719 593.894531 1150.886719 600.269531 C 1150.636719 607.019531 1150.761719 611.394531 1151.386719 610.894531 C 1152.011719 610.269531 1152.511719 608.144531 1152.511719 606.019531 C 1152.511719 601.769531 1155.886719 598.519531 1158.011719 600.644531 C 1158.886719 601.519531 1158.636719 603.644531 1157.511719 606.894531 C 1155.386719 612.894531 1155.261719 615.019531 1156.886719 615.019531 C 1157.636719 615.019531 1158.136719 614.394531 1158.136719 613.769531 C 1158.136719 612.269531 1163.261719 601.019531 1163.761719 601.519531 C 1163.886719 601.769531 1163.636719 604.894531 1163.261719 608.394531 C 1162.261719 615.269531 1162.761719 616.144531 1165.511719 613.519531 C 1167.261719 611.894531 1167.261719 612.394531 1164.886719 618.144531 C 1164.511719 619.144531 1164.761719 620.019531 1165.386719 620.019531 C 1166.761719 620.019531 1170.636719 613.144531 1170.636719 610.644531 C 1170.636719 609.769531 1171.386719 608.394531 1172.386719 607.644531 C 1175.136719 605.394531 1176.011719 608.144531 1174.011719 612.144531 C 1173.011719 614.019531 1171.761719 617.019531 1171.261719 618.769531 C 1170.511719 621.519531 1170.761719 621.394531 1172.886719 618.019531 C 1176.386719 612.644531 1178.511719 611.394531 1176.886719 615.644531 C 1175.136719 620.269531 1175.386719 624.894531 1177.386719 627.019531 C 1179.011719 628.519531 1179.261719 628.269531 1180.011719 625.019531 C 1180.511719 623.019531 1181.386719 621.019531 1182.011719 620.644531 C 1183.386719 619.644531 1183.511719 624.519531 1182.011719 627.269531 C 1181.511719 628.394531 1180.636719 632.644531 1180.261719 636.519531 L 1179.636719 643.644531 L 1182.511719 640.269531 C 1185.261719 637.019531 1188.636719 637.019531 1186.011719 640.269531 C 1185.261719 641.144531 1184.261719 643.644531 1183.886719 645.769531 C 1183.136719 649.019531 1183.636719 650.394531 1186.136719 653.019531 C 1187.886719 654.769531 1189.386719 657.269531 1189.386719 658.644531 C 1189.386719 660.019531 1190.386719 661.894531 1191.636719 662.769531 C 1193.011719 663.644531 1194.261719 665.269531 1194.761719 666.269531 C 1195.261719 667.644531 1195.511719 667.519531 1195.511719 665.769531 C 1195.636719 663.644531 1197.386719 663.894531 1197.636719 666.019531 C 1197.636719 666.519531 1198.136719 669.269531 1198.636719 672.269531 C 1199.386719 676.394531 1200.136719 677.519531 1201.636719 677.019531 C 1203.136719 676.519531 1204.386719 677.769531 1206.136719 681.269531 C 1207.386719 683.894531 1210.011719 687.769531 1211.886719 689.644531 C 1216.011719 693.894531 1219.386719 700.269531 1219.386719 703.644531 C 1219.386719 705.144531 1220.011719 705.894531 1221.011719 705.519531 C 1222.011719 705.144531 1222.386719 703.269531 1222.136719 699.894531 L 1221.636719 694.769531 L 1225.261719 697.394531 C 1227.261719 698.894531 1230.261719 702.269531 1231.886719 705.019531 C 1235.886719 711.519531 1238.761719 712.769531 1237.761719 707.519531 C 1236.761719 702.769531 1238.136719 702.769531 1241.636719 707.519531 C 1244.886719 711.769531 1247.011719 712.394531 1246.011719 708.769531 C 1245.136719 705.519531 1248.261719 695.144531 1249.886719 695.769531 C 1250.636719 696.019531 1252.386719 693.644531 1253.761719 690.394531 L 1256.136719 684.394531 L 1257.761719 689.894531 C 1259.636719 696.394531 1260.386719 697.394531 1261.886719 695.019531 C 1262.761719 693.644531 1263.261719 693.894531 1264.261719 696.644531 C 1266.261719 701.769531 1267.136719 700.644531 1266.136719 694.394531 C 1265.261719 688.269531 1266.261719 682.519531 1268.136719 682.519531 C 1268.886719 682.519531 1269.386719 683.769531 1269.511719 685.269531 C 1269.511719 687.644531 1269.886719 687.394531 1271.511719 683.769531 C 1272.511719 681.394531 1275.386719 676.894531 1278.011719 673.769531 C 1285.761719 664.144531 1286.886719 660.769531 1287.511719 644.019531 C 1287.886719 634.144531 1288.636719 630.394531 1291.261719 624.269531 C 1294.761719 616.519531 1295.761719 604.769531 1294.386719 588.269531 L 1293.761719 580.769531 L 1303.136719 579.019531 C 1310.761719 577.644531 1313.761719 576.394531 1319.886719 571.769531 C 1324.011719 568.769531 1328.261719 566.269531 1329.511719 566.269531 C 1330.636719 566.269531 1332.886719 565.269531 1334.511719 563.894531 C 1336.136719 562.644531 1339.511719 561.144531 1341.886719 560.644531 C 1349.511719 559.019531 1357.636719 554.144531 1363.136719 547.894531 C 1372.511719 537.269531 1372.511719 536.894531 1371.261719 510.644531 C 1370.886719 503.019531 1369.886719 495.519531 1369.011719 494.019531 C 1367.761719 491.519531 1368.011719 490.769531 1370.386719 489.019531 C 1373.761719 486.394531 1375.136719 480.019531 1373.136719 476.394531 C 1372.136719 474.394531 1372.136719 473.144531 1373.011719 472.019531 C 1373.761719 471.144531 1374.011719 470.019531 1373.636719 469.644531 C 1373.136719 469.144531 1373.761719 467.269531 1375.011719 465.394531 C 1376.511719 463.144531 1376.761719 461.894531 1375.886719 461.519531 C 1373.761719 460.894531 1374.011719 458.894531 1376.386719 456.644531 C 1377.761719 455.269531 1377.886719 454.394531 1376.886719 453.769531 C 1376.136719 453.269531 1377.761719 452.269531 1380.511719 451.519531 C 1384.136719 450.394531 1385.636719 449.144531 1386.261719 446.644531 C 1386.761719 444.644531 1387.636719 442.769531 1388.386719 442.394531 C 1389.136719 441.894531 1388.636719 441.019531 1387.011719 440.144531 C 1384.886719 438.894531 1384.386719 437.519531 1384.386719 432.519531 C 1384.386719 427.144531 1384.761719 426.394531 1387.136719 426.019531 C 1389.886719 425.644531 1393.511719 420.394531 1392.386719 418.519531 C 1392.011719 418.019531 1390.261719 417.519531 1388.386719 417.519531 C 1386.511719 417.519531 1383.636719 416.269531 1381.886719 414.894531 C 1380.136719 413.519531 1379.511719 412.644531 1380.386719 413.144531 C 1381.136719 413.519531 1381.886719 413.269531 1381.886719 412.519531 C 1381.886719 411.769531 1380.511719 410.519531 1378.761719 409.769531 C 1375.886719 408.519531 1375.761719 408.144531 1377.636719 406.144531 C 1378.761719 404.894531 1379.261719 403.269531 1378.761719 402.644531 C 1378.386719 401.894531 1378.886719 400.894531 1380.011719 400.519531 C 1381.511719 399.894531 1381.636719 399.394531 1380.511719 398.769531 C 1379.511719 398.019531 1380.136719 397.144531 1382.636719 395.894531 C 1384.636719 394.894531 1387.386719 392.769531 1388.761719 391.269531 L 1391.261719 388.394531 L 1388.386719 389.394531 C 1385.636719 390.144531 1385.511719 390.019531 1386.761719 387.644531 C 1388.261719 385.019531 1386.511719 383.769531 1385.011719 386.269531 C 1384.636719 386.894531 1383.136719 387.519531 1381.761719 387.519531 C 1380.386719 387.519531 1379.636719 386.894531 1380.011719 386.269531 C 1380.511719 385.519531 1378.886719 385.019531 1376.011719 384.894531 C 1371.761719 384.769531 1371.636719 384.644531 1374.386719 383.769531 C 1376.136719 383.269531 1376.761719 382.769531 1376.011719 382.644531 C 1374.136719 382.519531 1373.761719 380.019531 1375.511719 380.019531 C 1376.136719 380.019531 1378.261719 379.394531 1380.261719 378.644531 C 1382.761719 377.769531 1383.261719 377.144531 1382.011719 376.269531 C 1380.761719 375.519531 1381.386719 374.769531 1384.511719 373.144531 C 1390.136719 370.269531 1390.261719 370.144531 1388.136719 368.644531 C 1386.636719 367.644531 1386.886719 366.894531 1390.011719 364.394531 C 1392.886719 362.019531 1393.386719 361.019531 1392.136719 359.769531 C 1391.011719 358.644531 1391.136719 357.769531 1392.636719 356.019531 C 1394.511719 354.019531 1394.511719 353.769531 1392.636719 353.019531 C 1390.136719 352.019531 1390.011719 349.269531 1392.511719 348.269531 C 1395.386719 347.269531 1394.761719 345.019531 1391.636719 345.019531 C 1385.011719 345.019531 1383.011719 337.894531 1388.886719 335.269531 C 1390.761719 334.269531 1391.636719 333.144531 1391.136719 331.894531 C 1390.636719 330.644531 1391.136719 330.019531 1393.011719 330.019531 C 1396.011719 330.019531 1396.511719 328.144531 1393.761719 327.019531 C 1391.386719 326.144531 1391.386719 324.394531 1393.886719 322.019531 C 1396.511719 319.269531 1397.761719 319.519531 1401.261719 323.269531 C 1403.011719 325.144531 1404.386719 326.019531 1404.386719 325.269531 C 1404.386719 322.144531 1401.511719 317.894531 1397.386719 315.144531 C 1392.011719 311.519531 1391.886719 307.894531 1396.886719 303.144531 C 1399.636719 300.519531 1400.386719 298.894531 1399.886719 296.644531 C 1399.386719 295.019531 1399.761719 292.894531 1400.511719 292.019531 C 1401.761719 290.644531 1401.511719 290.144531 1399.761719 289.769531 C 1397.886719 289.269531 1398.136719 288.894531 1401.011719 287.519531 C 1405.511719 285.269531 1405.386719 283.269531 1400.636719 284.144531 C 1397.011719 284.894531 1395.511719 283.519531 1398.261719 281.769531 C 1399.011719 281.394531 1399.261719 279.644531 1398.886719 278.019531 C 1398.261719 275.894531 1398.636719 275.019531 1399.886719 275.019531 C 1400.761719 275.019531 1402.511719 273.644531 1403.636719 271.894531 L 1405.636719 268.769531 L 1400.261719 269.519531 C 1396.136719 269.894531 1394.386719 269.644531 1393.011719 268.019531 C 1391.636719 266.269531 1391.636719 265.894531 1393.511719 264.894531 C 1394.636719 264.144531 1395.636719 262.769531 1395.636719 261.769531 C 1395.636719 260.769531 1396.511719 259.644531 1397.511719 259.269531 C 1400.136719 258.144531 1399.886719 256.269531 1397.011719 256.269531 C 1393.136719 256.269531 1390.636719 254.894531 1390.636719 252.894531 C 1390.636719 251.394531 1391.011719 251.269531 1392.386719 252.394531 C 1393.886719 253.644531 1394.011719 253.394531 1393.511719 251.394531 C 1393.136719 249.894531 1392.261719 248.769531 1391.511719 248.769531 C 1390.636719 248.769531 1390.636719 248.269531 1391.636719 247.269531 C 1393.761719 245.144531 1393.511719 243.769531 1391.136719 244.644531 C 1389.511719 245.269531 1389.261719 244.894531 1390.011719 242.769531 C 1390.636719 240.394531 1390.261719 240.019531 1387.136719 240.019531 C 1385.136719 240.019531 1382.761719 239.144531 1381.886719 238.144531 C 1381.011719 237.144531 1380.761719 236.269531 1381.261719 236.269531 C 1384.011719 236.269531 1378.511719 232.644531 1373.761719 231.269531 C 1370.636719 230.394531 1368.136719 229.144531 1368.136719 228.644531 C 1368.136719 228.019531 1367.261719 227.519531 1366.261719 227.519531 C 1365.011719 227.519531 1364.386719 226.269531 1364.386719 223.769531 C 1364.386719 221.644531 1364.011719 220.019531 1363.511719 220.019531 C 1362.886719 220.019531 1361.386719 219.144531 1360.136719 218.144531 C 1358.261719 216.769531 1358.011719 216.019531 1359.261719 214.519531 C 1360.511719 213.019531 1360.261719 212.519531 1358.011719 211.894531 C 1353.386719 210.394531 1349.261719 206.019531 1350.761719 204.269531 C 1351.636719 203.144531 1351.511719 201.644531 1350.011719 198.894531 C 1348.136719 195.144531 1346.511719 194.394531 1341.636719 194.769531 C 1339.761719 195.019531 1339.386719 193.894531 1339.386719 187.019531 C 1339.386719 177.019531 1336.261719 159.019531 1333.511719 152.894531 C 1330.511719 146.394531 1324.511719 138.769531 1322.386719 138.769531 C 1321.011719 138.769531 1320.761719 139.894531 1321.511719 144.019531 C 1322.636719 149.769531 1322.636719 165.894531 1321.636719 166.894531 C 1321.386719 167.269531 1318.886719 166.394531 1316.136719 165.144531 C 1313.386719 163.769531 1309.011719 162.394531 1306.261719 161.894531 C 1299.886719 160.769531 1291.011719 156.644531 1289.511719 154.144531 C 1288.761719 152.769531 1288.261719 152.644531 1287.636719 153.644531 C 1286.386719 155.644531 1284.386719 155.394531 1284.386719 153.269531 C 1284.386719 151.894531 1283.136719 151.644531 1279.136719 152.144531 C 1275.761719 152.644531 1274.261719 152.519531 1274.761719 151.644531 C 1275.886719 149.769531 1272.761719 148.769531 1266.261719 148.769531 C 1263.261719 148.769531 1260.386719 148.144531 1260.011719 147.519531 C 1259.636719 146.769531 1258.386719 146.269531 1257.386719 146.269531 C 1256.386719 146.269531 1255.886719 146.769531 1256.261719 147.519531 C 1256.636719 148.144531 1255.886719 148.769531 1254.511719 148.769531 C 1253.136719 148.769531 1251.761719 148.269531 1251.386719 147.769531 C 1250.636719 146.519531 1241.511719 146.769531 1239.511719 148.019531 C 1238.761719 148.519531 1237.386719 148.519531 1236.636719 147.894531 C 1235.761719 147.394531 1233.511719 147.144531 1231.636719 147.394531 C 1227.761719 147.769531 1226.011719 145.644531 1228.261719 143.019531 C 1229.636719 141.269531 1229.261719 141.144531 1225.261719 141.894531 C 1221.511719 142.644531 1220.636719 142.394531 1220.636719 140.769531 C 1220.636719 139.644531 1220.511719 138.769531 1220.386719 138.769531 C 1219.136719 138.894531 1210.761719 142.269531 1208.136719 143.644531 C 1206.386719 144.644531 1202.636719 147.394531 1199.761719 149.769531 C 1195.636719 153.269531 1193.261719 154.269531 1188.761719 154.519531 C 1185.636719 154.644531 1183.136719 154.519531 1183.136719 154.269531 C 1183.136719 154.144531 1183.636719 152.519531 1184.261719 150.894531 C 1185.886719 146.769531 1184.761719 145.894531 1181.761719 148.894531 C 1179.261719 151.394531 1171.886719 152.269531 1171.886719 150.019531 C 1171.886719 149.269531 1171.011719 148.769531 1170.011719 148.769531 C 1169.011719 148.769531 1168.136719 149.894531 1168.136719 151.144531 C 1168.136719 153.644531 1164.886719 155.644531 1163.761719 153.769531 C 1163.386719 153.269531 1163.511719 151.769531 1164.011719 150.394531 C 1164.511719 148.769531 1164.011719 149.019531 1162.136719 151.269531 C 1160.386719 153.269531 1159.511719 153.769531 1159.386719 152.644531 C 1159.386719 151.394531 1158.511719 151.644531 1156.511719 153.519531 C 1152.886719 156.894531 1151.886719 156.144531 1152.636719 150.519531 C 1153.136719 146.519531 1151.386719 144.519531 1150.261719 147.769531 C 1149.886719 149.019531 1149.011719 149.019531 1146.511719 147.644531 C 1143.761719 146.144531 1143.386719 145.519531 1144.761719 144.019531 C 1145.886719 142.519531 1145.886719 142.019531 1144.761719 141.644531 C 1143.886719 141.269531 1143.136719 140.269531 1143.136719 139.394531 C 1143.136719 138.394531 1142.011719 136.769531 1140.511719 135.769531 C 1139.011719 134.769531 1138.261719 133.394531 1138.761719 132.644531 C 1139.136719 131.894531 1138.886719 131.269531 1138.261719 131.269531 C 1137.511719 131.269531 1136.886719 130.144531 1136.886719 128.769531 C 1136.886719 127.394531 1135.886719 125.144531 1134.761719 123.894531 C 1128.761719 117.394531 1126.261719 113.394531 1126.636719 111.144531 C 1126.886719 109.769531 1126.136719 108.394531 1125.011719 108.019531 C 1123.261719 107.269531 1123.261719 107.144531 1125.136719 105.769531 C 1126.886719 104.394531 1126.761719 104.019531 1123.886719 102.019531 C 1122.011719 100.894531 1120.761719 99.519531 1121.011719 99.019531 C 1121.386719 98.519531 1120.511719 96.394531 1119.261719 94.394531 C 1117.886719 92.269531 1116.261719 89.144531 1115.511719 87.144531 C 1114.761719 85.269531 1113.386719 83.769531 1112.386719 83.769531 C 1111.386719 83.769531 1110.136719 82.769531 1109.761719 81.519531 C 1109.261719 80.394531 1107.886719 78.644531 1106.636719 77.769531 C 1105.386719 76.894531 1104.386719 75.519531 1104.386719 74.769531 C 1104.386719 74.019531 1103.386719 72.644531 1102.261719 71.769531 C 1100.136719 70.269531 1100.136719 70.019531 1102.261719 67.894531 C 1104.261719 65.769531 1104.261719 65.644531 1099.761719 64.394531 C 1095.511719 63.144531 1095.011719 62.644531 1095.261719 59.019531 C 1095.386719 55.519531 1095.011719 55.019531 1093.011719 55.644531 C 1091.761719 56.144531 1090.636719 56.019531 1090.636719 55.394531 C 1090.636719 54.394531 1088.761719 53.269531 1080.636719 49.394531 C 1078.261719 48.394531 1075.386719 46.519531 1074.136719 45.394531 C 1072.886719 44.269531 1071.511719 43.644531 1071.136719 44.144531 C 1070.511719 44.769531 1065.386719 42.644531 1057.886719 38.644531 C 1056.636719 38.019531 1054.761719 37.519531 1053.761719 37.519531 C 1052.761719 37.519531 1051.886719 36.894531 1051.886719 36.269531 C 1051.886719 35.519531 1051.011719 35.019531 1050.011719 35.019531 C 1049.011719 35.019531 1046.136719 33.644531 1043.636719 31.894531 C 1041.136719 30.144531 1037.761719 28.769531 1036.261719 28.769531 C 1034.761719 28.769531 1032.761719 27.894531 1031.761719 26.769531 C 1030.886719 25.769531 1029.136719 25.144531 1027.886719 25.394531 C 1026.636719 25.769531 1025.636719 25.519531 1025.636719 25.019531 C 1025.636719 22.144531 1021.761719 20.269531 1016.886719 20.894531 C 1012.386719 21.519531 1011.886719 21.269531 1010.636719 18.144531 C 1009.511719 15.144531 1009.136719 15.019531 1007.261719 16.394531 C 1005.886719 17.519531 1005.136719 17.644531 1004.761719 16.769531 C 1004.511719 16.019531 1002.636719 15.769531 1000.636719 16.019531 C 998.511719 16.269531 996.011719 15.894531 995.136719 15.019531 C 994.136719 14.269531 991.136719 13.394531 988.636719 13.019531 C 986.011719 12.644531 983.136719 11.769531 982.261719 11.019531 C 981.386719 10.394531 979.511719 10.019531 978.136719 10.394531 C 976.886719 10.769531 975.136719 10.269531 974.261719 9.269531 C 973.386719 8.269531 971.636719 7.894531 969.261719 8.394531 C 966.386719 8.894531 964.761719 8.394531 962.511719 6.269531 C 960.136719 4.019531 959.386719 3.769531 959.386719 5.269531 C 959.386719 6.894531 958.511719 7.019531 953.511719 6.019531 C 950.136719 5.269531 947.136719 4.144531 946.761719 3.644531 C 946.011719 2.394531 942.761719 2.769531 939.011719 4.394531 C 937.636719 4.894531 936.136719 4.769531 935.261719 3.894531 C 934.511719 3.144531 932.886719 2.519531 931.761719 2.519531 C 930.511719 2.519531 929.261719 1.769531 929.011719 0.894531 C 928.511719 -0.230469 928.136719 -0.230469 927.136719 1.019531 C 926.261719 2.394531 925.761719 2.269531 924.636719 0.894531 C 923.511719 -0.480469 921.761719 -0.605469 917.261719 0.269531 C 913.886719 0.894531 910.761719 1.269531 910.011719 1.269531 C 909.386719 1.269531 903.886719 1.019531 897.886719 0.769531 C 889.011719 0.394531 886.886719 0.644531 886.886719 2.019531 C 886.886719 4.394531 885.136719 4.269531 882.636719 1.519531 C 881.386719 0.0195312 878.636719 -0.855469 875.386719 -0.980469 C 872.511719 -1.105469 869.511719 -1.855469 868.886719 -2.480469 C 867.136719 -4.230469 866.511719 -4.105469 865.011719 -1.730469 Z M 710.636719 730.519531 C 710.636719 731.519531 710.136719 732.769531 709.386719 733.144531 C 708.761719 733.519531 708.136719 732.769531 708.136719 731.394531 C 708.136719 729.894531 708.761719 728.769531 709.386719 728.769531 C 710.136719 728.769531 710.636719 729.519531 710.636719 730.519531 Z M 736.886719 783.769531 C 736.136719 785.144531 735.261719 786.269531 735.011719 786.269531 C 734.636719 786.269531 734.386719 785.144531 734.386719 783.769531 C 734.386719 782.394531 735.261719 781.269531 736.261719 781.269531 C 737.886719 781.269531 738.011719 781.769531 736.886719 783.769531 Z M 743.136719 798.769531 C 742.386719 800.144531 741.511719 801.269531 741.261719 801.269531 C 740.886719 801.269531 740.636719 800.144531 740.636719 798.769531 C 740.636719 797.394531 741.511719 796.269531 742.511719 796.269531 C 744.136719 796.269531 744.261719 796.769531 743.136719 798.769531 Z M 743.136719 798.769531 "/>
<path style=" stroke:none;fill-rule:nonzero;fill:rgb(0%,0%,0%);fill-opacity:1;" d="M 21.261719 365.144531 C 20.761719 365.894531 20.636719 366.644531 21.011719 367.019531 C 21.261719 367.394531 21.886719 366.769531 22.261719 365.644531 C 23.136719 363.519531 22.386719 363.144531 21.261719 365.144531 Z M 21.261719 365.144531 "/>
<path style=" stroke:none;fill-rule:nonzero;fill:rgb(0%,0%,0%);fill-opacity:1;" d="M 20.011719 443.769531 L 16.261719 444.769531 L 20.261719 444.894531 C 22.386719 444.894531 24.636719 444.394531 25.011719 443.769531 C 25.886719 442.394531 25.386719 442.394531 20.011719 443.769531 Z M 20.011719 443.769531 "/>
<path style=" stroke:none;fill-rule:nonzero;fill:rgb(0%,0%,0%);fill-opacity:1;" d="M 710.636719 660.019531 C 708.386719 661.519531 710.386719 661.519531 713.761719 660.019531 C 715.386719 659.269531 715.636719 658.894531 714.386719 658.894531 C 713.386719 658.894531 711.636719 659.394531 710.636719 660.019531 Z M 710.636719 660.019531 "/>
<path style=" stroke:none;fill-rule:nonzero;fill:rgb(0%,0%,0%);fill-opacity:1;" d="M 760.511719 802.144531 C 758.886719 804.144531 759.011719 804.269531 761.011719 802.644531 C 763.011719 801.019531 763.636719 800.019531 762.636719 800.019531 C 762.386719 800.019531 761.386719 801.019531 760.511719 802.144531 Z M 760.511719 802.144531 "/>
</g>
</svg>
