<?xml version="1.0" encoding="utf-8"?>
<svg version="1.1" id="Layer_1" xmlns:serif="http://www.serif.com/"
	 xmlns="http://www.w3.org/2000/svg" xmlns:xlink="http://www.w3.org/1999/xlink" x="0px" y="0px" viewBox="0 0 5000 3784.695"
	 enable-background="new 0 0 5000 3784.695" xml:space="preserve">
<g>
	<path fill="#202020" d="M4996.903,419.21c-6.082-2.028-31.024,37.694-95.779,53.607c-45.724,11.236-71.398-8.674-198.281,2.717
		c-37.13,3.333-82.448,35.826-82.448,28.728c0-3.524,16.866-13.433,27.572-66.54c12.965-64.311,20.078-146.764,65.144-190.569
		c19.126-18.592,95.714-68.269,95.614-68.202c36.059-24.272,64.373-39.074,93.951-95.257c7.483-14.214,12.938-29.333,19.307-44.118
		c2.792-6.483,1.077-13.047,3.095-19.845c1.875-6.317,5.863-17.041-1.284-19.511c-1.929-0.667-1.658,0.352-6.021,0.789
		c-1.288-0.197-9.792,0.536-17.017,1.978c-10.498-2.106-10.841,4.398-28.088,5.613c-17.55,1.237-10.911,11.715-41.472,29.755
		c-17.375,10.256-81.103,34.554-84.219,35.542c-52.588,16.678-49.052,20.464-54.11,20.464c-0.836,0-3.671,0.993-6.298,2.206
		c-23.123,10.671-36.996-2.293-126.624,76.874c-20.566,18.165-24.911,24.377-34.222,52.027
		c-51.249,152.189-13.508,117.423-86.258,194.604c-3.548-3.401-13.965-13.704-18.108-16.01c-3.583-1.99-19.404-2.532-28.775-0.982
		c-10.114,1.671,0.859,5.156,10.906,6.581c11.022,1.563,14.985,3.12,20.973,8.24c4.807,4.111,4.252,7.451-2.033,12.244
		c-10.296,7.854-10.551-0.491-28.501,5.521c-11.05,3.702-12.597,2.562-9.38-6.909c6.014-17.713-0.637-13.837-0.637-22.756
		c0-12.491-34.416-78.895-54.471-64.613c-2.906,2.068-6.735,3.105-11.473,3.105c-14.141,0-27.968,14.992-15.147,16.424
		c6.185,0.689,8.998,3.587,12.961,13.352c14.456,35.634-27.375,103.514-27.375,113.748c0,7.725-11.28-12.308,0.776-48.777
		c3.079-9.311,6.647-26.068,8.236-38.682c1.633-12.969,0.373-20.77-5.095-31.549c-3.958-7.801-20.762-26.06-23.911-25.982
		c-2.78,0.068-16.236,4.926-21.699,7.83c-5.764,3.067-10.422,8.157-9.229,10.087c0.503,0.815,5.964,1.957,12.132,2.535
		c13.474,1.262,10.827-0.488,12.717,6.958c2.484,9.798-10.129,24.847-12.548,33.177c-1.507,5.184-6.801,10.441-13.746,21.599
		c-5.897,9.474-6.742,9.653-6.778-0.755c-0.049-16.67-10.899-41.451-36.36-46.739c-4.586-0.952-9.518-2.353-10.96-3.114
		c-7.357-3.881-19.93,6.979-27.887,24.088c-16.573,35.633,11.856,15.953,17.061-10.072c4.777-23.874,33.4,11.868,24.81,20.459
		c-5.523,5.522-7.91,30.511-3.694,38.663c6.486,12.547-1.545,7.315-9.94,6.731c-2.918-0.202-7.011-1.063-9.096-1.912
		c-5.504-2.243-31.332-3.994-32.441-2.199c-1.502,2.428-7.741-1.264-21.375,2.586c-13.054,3.69-25.997,4.364-29.823,5.944
		c-3.645,1.504-8.833-4.252-8.833-9.801c0-4.005-0.523-4.548-4.386-4.548c-10.901,0-2.678-17.593-8.879-16.377
		c-6.07,1.196,1.475,32.784-7.656,23.653c-2.538-2.538-2.268-11.913,0.585-20.315c2.304-6.79,2.277-7.208-0.684-10.169
		c-2.762-2.762-3.696-2.898-8.847-1.29c-7.339,2.292-11.676,5.609-10.281,7.865c2.077,3.362,8.312-1.752,8.312,3.111
		c0,4.024,3.032,2.142,3.032,10.862c0,4.011,1.025,7.378,2.857,9.385c4.607,5.045,5.341,9.436,1.733,10.378
		c-5.63,1.472-5.487,9.693,16.323,19.383c6.082,2.701,10.516,5.376,9.854,5.943c-0.664,0.566-7.687,2.916-15.608,5.224
		c-27.784,8.087-25.73,17.226-41.883,10.566c-8.965-3.694-12.692-7.851-12.692-14.156c0-14.864,27.287-22.179,27.287-26.194
		c0-1.085-15.837-4.657-28.576,8.21c-7.133,7.204-8.139,5.385-2.418-4.376c4.216-7.193,11.515-12.534,22.006-16.101
		c17.077-5.806,19.318-8.634,6.84-8.634c-34.165,0-51.273,44.702-46.159,64.623c0.927,3.612,4.501,15.447,2.956,16.401
		c-1.427,0.882-19.837-13.065-19.833-27.798c0.001-7.883,3.635-12.72,14.4-19.176c3.335-2,5.115-3.658,3.957-3.684
		c-1.158-0.026-2.952-1.202-3.985-2.615c-1.765-2.415-2.113-2.415-5.798,0c-2.156,1.413-4.884,2.568-6.062,2.568
		c-4.845,0-6.857,11.847-6.597,1.145c0.217-8.927,3.353-3.243,7.993-13.534c4.63-10.266,24.28-23.558,38.863-26.288
		c6.438-1.205,9.538-4.133,8.165-7.711c-1.867-4.862-43.579,8.69-48.269,12.728c-1.452,1.249-4.443,5.412-6.649,9.25
		c-8.478,14.763-10.512,5.2-11.532,53.972c-0.561,26.914,10.966,37.022,10.966,39.269c0,1.43-17.946,1.051-20.865-0.44
		c-14.079-7.18-21.581-6.752-21.581-18.267c0-3.843,1.314-5.594,7.58-10.095c7.968-5.725,4.43-4.006,11.003-10.251
		c1.831-1.74-0.303-4.356-2.286-3.762c-2.106-0.046-4.347,1.347-3.459,2.782c-4.706,3.93-10.005,7.081-15.319,10.156
		c-1.201-1.199,3.711-11.667,5.474-11.667c0.896,0,2.242-1.609,2.989-3.574c2.539-6.684,19.446-12.07,15.914-17.785
		c-2.791-4.517-16.671,1.489-27.333,11.826c-9.879,9.579-12.399,17.718-8.776,28.351c3.309,9.711,0.708,9.603-0.458,28.556
		c-1.513,24.732-7.331,4.66-5.31-6.461c1.259-6.919,1.073-8.109-1.647-10.645c-2.315-2.157-3.751-2.486-5.877-1.348
		c-3.233,1.731-2.813,5.124-2.813,29.04c-11.27-2.918-19.618-5.341-29.435,0.411c-9.761,5.717-3.431,3.596-13.39,13.057
		c-20.595,19.562-19.662,46.034-27.714,29.068c-2.307-4.863-2.448-7.028-1.049-16.072c1.852-11.965,4.633-15.776,15.313-20.988
		c6.283-3.067,6.623-3.482,3.285-4.013c-2.048-0.326-6.378,0.203-9.623,1.175c-15.584,4.668-2.665-5.962,22.202-13.645
		c18.997-5.873-25.167-4.123-34.715,1.878c-15.746,9.901-20.031,4.905-26.55,17.288c-10.538,20.022-10.86,15.294-11.082,36.966
		c-0.171,16.685,0,17.693,3.99,23.47c4.285,6.208,5.377,11.989,2.586,13.712c-2.677,1.655-0.957-1.745-13.94-3.009
		c-13.543-1.319-20.232-8.41-31.254-14.8c-16.601-9.625-36.526-15.787-54.158-23.413c-160.666-69.498-133.875-73.433-358.734-69.135
		c-134.451,2.57-139.519,12.426-231.461-28.565c-25.716-11.466-50.579-24.861-74.281-40.06
		c-22.901-14.685-50.164-21.619-75.925-30.811c-64.243-22.923-99.881,30.275-62.58,50.604c19.987,10.89,29.97-1.654,70.195,36.933
		c39.31,37.711,58.821,82.357,134.196,138.092c103.887,76.817,257.014,47.875,354.602,73.247
		c44.382,11.539,87.625,27.461,128.876,47.496c-27.581,17.317-56.386,27.863-50.42,59.695c-10.025,0-14.047-0.69-20.97,3.976
		c-7.604,5.127-30.908,29.139-30.908,31.848c0,1.302-1.724,2.074-4.636,2.074c-7.016,0-26.247,3.285-27.881,4.762
		c-0.793,0.717-2.533,1.302-3.87,1.302c-5.016,0-28.798,20.635-28.798,24.987c0,2.726-2.765,2.924-8.618,0.62
		c-5.494-2.163-37.145-5.715-42.243-4.74c-2.242,0.428-3.185,0.956-3.454,2.471c-13.023,1.636-26.906,15.314-31.834,19
		c-6.447,4.823-3.382,5.932-3.901,7.5c-0.906,1.614-5.757-1.116-7.552-2.07c-8.151-4.335-4.948-4.089-14.091-0.214
		c-10.923,4.633-45.521,26.598-55.115,28.116c-11.642,1.839-16.876,10.738-20.388,10.738c-1.363,0-8.846,5.988-9.905,6.845
		c-40.198,32.945-117.954,35.078-163.758,25.191c-75.083-16.192-262.557,55.434-323.631,72.872
		c-78.065,22.291-83.239,11.184-103.354,20.569c-38.456,17.942-196.711,38.906-334.12,39.733
		c-5.497,0.033-103.139-4.36-139.362,2.867c-2.918,0.582-9.399,0.549-14.401-0.073c-72.141-8.984-378.703,35.714-863.86-53.467
		c-194.798-35.807-211.181-53.865-267.785-53.867c-43.17-0.001-84.339-0.788-126.581,11.131
		c-70.199,19.808-136.301,51.425-207.562,67.185c-153.41,33.928-205.811-0.081-268.434,15.887
		c-13.424,3.417-37.933,4.067-56.473,12.776c-6.047,2.839-12.017,5.163-13.264,5.163c-3.034,0-0.378,2.174-7.921,4.661
		c-14.599,4.821-44.375,29.615-44.375,30.104c0,2.708-56.352,30.119-99.343,175.961c-35.225,119.496-20.079,234.225-19.421,385.838
		c0.727,167.447,9.87,295.399,0.112,366.941c-5.117,37.517-30.257,93.072-32.256,160.568c-1.598,53.948-8.838,61.785,1.25,138.421
		c2.566,19.493,10.229,43.402,4.775,62.693c-0.393,1.389-0.136,2.882,0.568,3.317c5.192,3.21-10.085,113.25-1.308,199.568
		c3.25,32.019,7.798,137.002,8.109,137.313c6.274,6.311-14.027,41.697-14.027,48.157c0.019,11.559-56.548,71.939-77.807,110.667
		c-8.171,14.879-10.113,22.779-10.113,41.12c0,16.806,7.558,72.988,0.946,95.545c-3.928,13.404-5.485,18.169-6.9,26.529
		c-3.506,20.744-16.478,41.278-19.816,55.767c-5.133,22.31-8.63,9.41-6.917,38.704c1.062,18.163,2.415,26.657,16.606,58.106
		c5.086,11.257,8.541,1.204,5.044,18.109c-3.804,18.37-17.973,39.203-20.471,60.853c-1.88,16.316,7.874,37.724,11.934,42.089
		c7.762,8.342,9.458,18.414,4.986,29.593c-2.51,6.274-1.904,9.49,1.204,6.382c2.63-2.63,9.097-17.262,11.172-17.568
		c1.251-0.185,4.404,16.628-1.704,32.92c-9.704,25.895-14.809,6.541-31.097,77.528c-3.628,15.81-3.623,16.23,0.152,15.674
		c5.025-0.743,7.117-4.78,5.163-9.958c-2.635-6.983,4.951-10.769,12.109-12.933c-6.805-5.51-7.098-5.007-3.538-7.401
		c4.39-2.953,5.294-11.562,11.304-20.468c15.503-22.979,37.347-28.193,41.998-65.539c6.106-49.015,9.153,4.438,5.113,22.639
		c-13.53,60.945-30.789,53.578-41.699,95.153c-5.861,22.345-4.787,59.073,2.244,53.237c3.167-2.627,1.411-12.04,3.685-12.04
		c1.763,0,2.986-2.894-2.274-1.887c-6.202,1.185-3.506-5.556-1.516-7.208c2.48-2.058,3.09-6.064,0.922-6.064
		c-2.374,0-3.558-7.933-1.388-9.308c6.579-4.175,2.365,3.537,6.531,10.823c2.406,4.21,3.018,14.52,0.938,15.805
		c-2.821,1.743-2.858,8.527-0.056,10.489c1.857,1.301,3.294,5.364,4.404,12.452c2.574,16.45,2.488,16.306,9.094,15.249
		c13.429-2.145,7.338,14.551,20.07-10.654c-8.574-7.375-8.712-6.039-8.336-18.197c1.232-40.022,0.87-48.716,4.555-56.995
		c4.63-10.393,7.98-21.207,9.741-21.207c1.954,0,4.217-7.58,6.043-7.58c1.455,0-4.405,10.921-6.605,12.31
		c-0.961,0.606-0.843,4.046,0.333,9.719c3.126,15.058-1.321,43.686,1.563,45.466c2.44,1.509-0.853,0.234-2.407,13.977
		c-0.587,5.189-2.004,10.211-3.149,11.162c-2.817,2.338-2.623,4.387,0.415,4.387c6.249,0-5.218,28.043,7.663,25.478
		c6.458-1.285-3.003-23.204,4.242-23.204c2.792,0,2.997,0.858,2.576,10.854c-0.44,10.463,1.17,14.882,4.254,11.677
		c5.92-6.15,9.014-74.377,5.701-72.335c-0.776,0.478-0.972-21.735-1.965-25.663c-1.041-4.122-0.973-4.175,3.036-2.348
		c6.307,2.875,7.338,13.387,10.995,13.387c6.593,0-10.654-31.421-10.536-56.848c0.059-12.691,3.187-24.913,7.757-30.319
		c4.38-5.18,19.657-29.561,22.419-29.561c2.636,0,2.57,2.489-0.096,3.511c-1.152,0.443-2.424,3.073-2.827,5.847
		c-3.406,23.526-8.671,19.685-3.309,69.471c3.346,31.056,9.313,52.602,12.942,46.729c5.02-8.114,0.945,27.448-1.968,29.247
		c-1.267,0.782-1.326,1.693-0.2,3.117c3.133,3.958,1.707,44.607,8.454,37.854c4.444-4.443-9.412-24.732,6.635-56.933
		c5.981-12.002-0.662-5.206,3.167-17.307c2.767-8.749,6.476-27.507,6.047-30.58c-0.365-2.62,2.518-5.826,3.196,1.229
		c0.676,7.042,3.784,5.301,5.118-2.865c0.602-3.685,1.878-9.152,2.838-12.146c3.438-10.747-4.771-9.869-1.43-19.453
		c0.902-2.586,1.292-5.609,0.867-6.715c-0.91-2.368,1.889-7.024,2.867-4.771c0.362,0.834,2.868,5.227,5.569,9.764
		c17.66,29.655,15.466,23.167,15.466,59.969c-18.923,41.166-19.234,41.553-23.314,54.98c-4.187,13.77-6.747,36.51-4.425,39.307
		c2.802,3.376,5.808,2.263,5.924-2.194c0.853-32.396,6.94-37.857,12.751-55.711c4.349-13.364,5.469-15.493,8.99-17.097
		c2.386-1.088,3.491-2.938,3.578-5.994c0.196-6.823,4.892-26.817,4.892-35.44c0-8.177,3.103-6.919,2.98-1.728
		c-0.333,14.433,3.963,20.061-1.267,30.312c-8.222,16.119,5.811,8.256,8.471,4.953c6.823-8.471-7.152-56.836-7.152-61.76
		c0-3.162,13.366,13.993,15.967,20.495c1.27,3.175,4.304,13.834,6.741,23.688c4.902,19.83,4.846,20.021,7.677,18.275
		c1.164-0.72,1.428-3.006,0.758-6.594c-1.937-10.371-2.601-27.474-1.066-27.474c2.772,0,1.246,11.246,9.766,26.529
		c12.703,22.762,13.419,25.741,37.088,25.121c3.851,25.493,6.659,50.894,17.301,91.298c3.483,13.224,22.357,65.074,30.102,76.31
		c15.204,22.055,34.403,23.544,58.997,22.978c47.156,5.61,275.932,14.763,272.657-4.479c9.249,0.444,4.744,0.934,34.928-0.378
		c32.403-1.405,28.157,0.321,24.483-12.259c-9.955-34.091-6.934-22.966-12.948-31.099c-3.313-4.48-13.894-40.727-48.092-102.072
		c-5.688-10.238-7.682-25-11.134-36.233c-12.362-40.229-8.818-35.904-31.314-63.294c-7.734-9.417-17.873-16.371-24.184-16.586
		c-6.011-0.208-13.351-5.2-18.722-7.723c-18.766-8.813-27.16-18.499-31.349-19.838c-1.994-0.638-3.681,0.312-5.578-0.156
		c-8.866-2.188-11.74-17.652-19.344-28.669c-10.174-14.74-10.897-35.512-15.097-52.407c-23.98-96.477-37.43-134.38-24.345-221.015
		c8.479-56.657,29.355-146.228,72.652-183.845c11.849,51.511,32.041,85.049,22.459,236.146
		c-3.758,59.22-13.175,81.103-8.674,122.034c1.884,17.149,4.01,73.232,30.992,82.206c6.643,2.207,9.978,2.567,14.022,1.509
		c13.498-3.534,20.975-2.971,16.745,1.26c-1.328,1.328-4.361,12.046-7.698,27.205c-2.342,10.639-1.66,18.731,2.284,27.067
		c5.69,12.029,9.361,33.921,16.293,47.214c18.853,36.144,19.42,46.2,27.924,55.415c6.158,6.676-2.306-1.397,15.326,22.968
		c19.819,27.389,24.488,21.214,49.643,31.46c6.044,2.462,41.49,7.219,54.572,10.543c12.771,3.246,87.143-2.895,85.651-2.786
		c56.542-4.128,150.682-0.74,156.486-7.79c2.499-3.036,5.949-4.961,8.192-8.389c2.025-3.094,2.899-6.073,5.316-8.855
		c4.335-4.99-4.186-17.307-5.979-40.625c-2.112-27.481-0.339-41.609-15.446-72.458c-0.126-0.257-15.967-54.071-37.235-79.537
		c-5.484-6.567-9.061-16.84-11.885-17.921c-1.113-0.427-2.36-4.299-2.853-8.852c-0.79-7.316-8.838-25.482-11.847-26.744
		c-7.037-2.947-19.151-14.238-27.915-15.834c-42.176-7.706-21.681-7.644-49.517-14.953c-17.307-4.544-34.505-18.192-40.949-30.907
		c-6.754-13.331-7.673-11.506-9.975-18.388c-3.579-10.689,6.284-3.013-0.841-16.399c-7.203-13.527,1.543-9.927-3.434-21.842
		c-6.287-15.045-6.629-30.369-9.649-40.354c-27.651-91.438-5.498-197.398,44.203-277.838c13.136-21.26,29.298-40.64,39.252-63.753
		c18.232-42.336,23.485-42.974,38.501-60.085c48.516-55.289,156.101-98.812,165.849-110.57c0.97-1.17,3.958-3.011,6.64-4.092
		c7.061-2.841,22.976-14.196,28.257-15.805c4.583-1.396,3.264-1.533,20.747-12.829c28.067-18.135,26.35-24.825,44.309-34.185
		c13.779-7.177,10.835-14.371,13.888-14.371c4.507,0,19.94,12.789,17.276,2.181c-3.356-13.405,30.948,26.622,35.626,26.622
		c2.239,0,2.145-8.018-0.12-10.282c-0.985-0.987-1.361-2.227-0.832-2.755c1.032-1.034,9.983,5.465,10.122,7.349
		c0.047,0.623,2.43,3.618,5.295,6.658c2.867,3.038,6.031,7.5,7.03,9.914c2.172,5.244,5.007,4.86,5.673-0.769
		c0.264-2.228,0.946-4.014,1.516-3.969c1.981,0.161,28.345,32.076,31.667,38.337c2.895,5.46,3.343,5.795,3.344,2.51
		c0-5.914-4.29-14.729-4.39-16.372c-0.129-2.545,14.738,11.198,24.232,22.403l11.147,13.137
		c12.584,14.798,2.122-10.203,12.391-2.856c3.966,2.857,24.138,28.996,26.292,26.841c0.809-0.809-6.592-11.094-5.224-12.462
		c0.919-0.918,9.846,3.512,11.495,5.708c0.417,0.553,3.667,3.096,7.22,5.648c10.114,7.259,42.92,53.965,30.678,25.406
		c-1.708-3.989-2.765-7.594-2.345-8.013c1.781-1.781,18.786,7.962,21.287,12.199c3.97,6.721,11.725,8.276,14.342,14.603
		c2.353,5.679,13.055,16.09,14.364,13.972c0.552-0.891,0.29-2.954-0.584-4.586c-2.901-5.422,0.109-6.466-4.875-11.776
		c-1.81-1.925-2.95-3.843-2.535-4.258c0.808-0.808,31.51,29.229,41.211,40.32c10.209,11.67,1.663-0.563,5.926-2.115
		c2.342-0.852-0.477-6.384-3.255-6.384c-2.039,0-4.648-3.613-4.683-6.482c-0.072-5.914,19.683,12.883,19.683,15.996
		c0,1.995,19.999,11.257,29.593,27.686c6.726,11.528,10.868,1.213,5.341-3.788c-4.407-3.99-0.414-3.652-10.299-13.699
		c-7.395-7.515-6.99-11.377,0.568-5.432c2.206,1.734,4.628,3.153,5.385,3.153c2.644,0,21.675,16.719,27.019,24.665
		c5.877,8.736,6.064,4.353,6.064,7.278c0,2.371,4.548,4.829,4.548,9.59c0,3.985,6.746,11.069,8.239,8.653
		c1.418-2.296-9.748-22.901-2.748-22.897c4.229,0,26.064,23.605,25.965,23.505c10.276,10.438,2.195,7.932,15.159,17.744
		c12.496,9.462,9.043,11.024,16.154,16.1c4.025,2.87,4.763,3.001,5.203,0.929c0.281-1.328-0.571-3.611-1.895-5.074
		c-3.577-3.949-1.199-7.368-5.06-8.817c-1.46-0.549-3.484-2.062-4.499-3.364c-5.236-6.712,1.37-6.179,8.213,0.664
		c9.695,9.696,8.383,2.78,17.949,12.128c17.653,17.245,34.83,26.66,43.144,31.758c10.853,6.66,9.466,4.39,10.422-0.047
		c0.29-1.339,7.839,4.829,13.531,5.387c0,0,27.722,25.946,29.375,27.474c5.674,10.609,31.909,21.389,32.805,23.353
		c1.88,4.128,6.942,5.1,8.917,1.713c0.667-1.143,2.918-1.995,5.003-1.895c3.658,0.176,3.79-0.147,3.79-9.293
		c0-11.938-2.755-12.5-3.851-0.787c-1.188,12.676-1.342,2.91-5.615,4.549c-3.692,1.417-0.459-2.462-0.409-11.38
		c0.018-4.301,0.631-5.086,4.589-5.877c5.808-1.161,7.486-6.617,4.078-13.261c-3.658-7.135-2.125-10.338-7.081-11.509
		c-5.589-1.321-5.966-12.791-5.415-13.342c1.323-1.323,5.367,3.008,5.367,5.75c0,1.464,1.023,3.511,2.274,4.548
		c7.268,6.036-3.856-26.564-9.326-35.23c-5.547-8.789-7.07-17.196-10.656-21.163c-1.972-2.178-2.04-2.723-0.34-2.701
		c2.618,0.035,12.22,11.338,11.874,13.979c-1.223,9.351,3.649,2.843,5.456,5.768c1.704,2.759,3.461,1.437,2.606-1.962
		c-1.282-5.101-15.989-26.813-22.82-33.689c-5.648-5.688-5.856-6.217-3.722-9.475c2.021-3.08,2.01-3.452-0.097-3.452
		c-4.4,0-4.526,7.504-13.445-1.041c-4.208-4.031-6.089-8.357-2.357-5.417c1.043,0.822,3.729,1.93,5.971,2.465
		c4.959,1.184,7.563-1.896,3.597-4.251c-10.985-6.518-45.69-38.907-50.338-41.51c-4.469-2.501-1.742-3.286,5.25-1.513
		c14.657,3.722,5.717-5.517,1.636-6.099c-5.257-0.745-5.597-3.265-13.166-6.262c-16.446-6.514,13.958-6.22,89.876-3.985
		c37.673,1.11,117.192-7.351,129.613-8.156c141.802-9.192,118.158-5.937,146.063-9.109c85.147-9.681,154.197-48.239,334.651-42.077
		c225.422,7.697,280.225,88.123,354.982,111.864c73.047,23.197,69.283-12.528,68.731,32.966
		c-0.289,23.755-6.635,55.358-0.731,121.592c3.398,38.163,3.831,56.117,10.213,76.937c16.71,54.517,33.722,51.852,37.259,193.639
		c3.62,145.5-18.251,162.667-17.267,196.344c1.404,47.868,4.304,28.83,5.365,56.663c0.785,20.647,2.17,12.928,6.302,21.623
		c-1.36,0.877-0.332-0.961-5.998,11.727c-1.623,3.602-0.196,9.132-0.603,12.986c-0.797,7.552-2.535,14.987-3.2,22.588
		c-4.423,50.563,9.354,115.441,47.242,149.971c19.727,18.043,42.87,26.598,68.63,33.201c17.653,7.844,186.941,16.329,282.922-4.186
		l-4.676-0.224c47.831-9.471,74.121-16.372,101.258-14.131c6.339,0.523,16.815-1.4,7.083-9.284
		c-3.682-2.982-10.233-15.231-10.233-19.133c0-6.042-24.052-45.724-30.17-52.162c-6.203-6.528-3.044-10.569,5.486-7.021
		c20.5,8.525,121.211,11.78,143.187,3.491c9.154-3.453,17.364-21.109,57.787-23.672c8.747-0.554,55.634,4.42,56.095-9.69
		c0.121-3.699-9.349-11.759-11.632-14.781c-8.268-10.942-6.636-10.345-26.219-79.764c-16.61-58.883-26.774-81.156-84.881-115.178
		c-57.869-33.883-65.583-48.326-81.578-89.61c-21.326-55.043-27.847-62.914-30.356-84.393
		c-7.214-61.757-23.967-77.336,22.028-219.96c30.135-93.444,25.225-95.114,29.564-120.107c6.303-36.125,12.846-45.057,12.846-61.514
		c0-3.9,0.926-9.391,2.058-12.203c4.593-11.409,1.756-24.148,12.572-32.191c10.549-7.845,37.166-12.522,64.378-45.146
		c6.448-7.731,11.315-16.66,17.688-24.249c4.88-5.812,5.598-12.028,10.869-18.652c13.7-17.211,10.954-8.556,42.941-31.362
		c1.976-1.409,18.083-9.435,18.083-10.86c8.971-4.953,22.029-9.42,29.429-16.501c9.908-9.481,25.235-44.554,28.457-61.977
		c1.45-7.843,0.446-18.391,6.319-24.639c6.324-6.726,20.701-5.153,29.005-6.855c38.98-7.993,79.33-41.901,90.896-80.93
		c1.302-4.398,4.057-10.881,6.12-14.409c4.257-7.277,8.421-24.909,7.115-30.117c-1.107-4.408,6.063-14.252,10.379-14.253
		c19.871-0.003,36.906-27.439,42.671-43.083c25.198-68.371-8.756-70.964,41.076-129.527c22.668-26.641,23.661-61.031,35.653-91.922
		c8.544-22.011,8.965-63.508,35.075-103.842c8.336-12.876,14.61-25.307,22.579-44.73c12.825-31.259,28.532-61.222,41.875-92.251
		c46.78-108.79,53.421-204.464,67.231-232.151c2.495-5.002,4.542-9.79,4.542-10.642c0.003-4.768,6.8-14.972,8.941-19.406
		c4.391-9.094,11.787-16.446,19.346-22.96c10.602-9.138,19.718-19.906,29.919-28.99c15.388-13.701,129.345-66.245,255.808-86.63
		c22.362-3.605,44.067-10.565,66.493-13.582c3.752-0.505,8.186-1.766,9.854-2.802c19.209-11.942,62.832,45.342,177.114,38.368
		c78.1-4.766,86.719-48.688,104.829-68.621c4.546-5.003,8.288-9.561,8.313-10.128c0.088-1.939,15.233-15.42,19.816-17.638
		c6.177-2.994,18.446-18.507,41.664-32.185c30.14-59.732,22.952-37.784,14.102-95.669c-7.473-48.877,7.656-37.187-14.758-88.759
		c-5.544-12.757-9.609-30.916-19.154-41.267c-2.747-2.979-6.382-7.187-8.079-9.355c-4.503-5.751-19.986-15.282-27.772-24.598
		c-11.298-13.515-29.18-12.958-53.637-43.611c-18.14-22.735-15.594-30.476-22.148-39.092c-4.388-5.775-2.445-10.737-14.375-28.587
		c-12.097-18.106-23.811-52.597-44.478-91.098c-21.317-39.709-21.981-28.536-29.953-44.561c-5.221-10.495-6.294-7.128-11.811-18.016
		c-9.231-18.218-33.775-46.135-39.478-68.862c-2.112-8.411,5.807,3.545,7.322-1.002c1.083-3.246,11.526,6.459,11.738,10.909
		c0.258,5.403,8.967,21.652,9.063,16.909c0.111-5.521-4.53-20.201-7.98-25.246c-1.711-2.501-5.716-7.431-8.9-10.957
		c-8.523-9.437-7.083-13.417,2.068-5.718c7.802,6.564,10.581,3.702,2.98-3.07c-6.131-5.466-6.378-14.358-11.742-21.462
		c-4.813-6.379-3.02-8.061-5.632-8.061c-1.935,0-11.208-7.449-9.033-11.338c1.209-2.162,1.998-1.742,5.597,2.976
		c2.303,3.02,4.978,5.207,5.944,4.862c4.132-1.477,12.255,5.833,14.747,1.83c1.911-3.071,2.281-0.668,13.657,4.899
		c7.299,3.572,8.617,7.383,11.437,7.383c3.079,0,2.54-4.199-0.764-5.968c-8.309-4.444-4.109-10.462,29.815,5.533
		c6.655,3.138,7.652,1.648,1.875-2.799c-2.564-1.974-12.92-10.279-12.92-10.279c26.073,2.46,42.821,8.337,44.12,7.038
		c1.093-1.089-7.559-8.61-6.671-9.497c1.504-1.511,12.175,5.93,20.063,3.637c11.535-3.349,31.315,7.158,0.094-12.044
		c7.3,0.532,24.517,1.558,31.609,3.376c17.007,4.359-3.287-6.182-8.306-6.25c-1.356-0.018-3.315-1.057-4.354-2.307
		c-1.653-1.99-0.31-2.265,10.805-2.207c37.182,0.191,26.507,11.426,31.764,5.092c1.736-2.093,1.611-2.765-0.849-4.564
		c-1.587-1.161-3.975-2.11-5.307-2.11c-3.742,0-18.342-5.453-18.68-6.976c-0.424-1.918,25.862-1.124,30.824,0.932
		c5.7,2.36,15.871,1.384,15.871-1.524c0-2.444-15.125-8.504-24.754-9.92c-6.491-0.955-13.24-2.283-17.692-3.132
		c29.014-3.161,48.9,3.296,50.635,1.567c1.489-1.489-3.9-4.933-11.979-7.656c-14.005-4.719-1-4.078,12.205-0.741
		c8.712,2.204,13.222,2.674,15.896,1.657c4.958-1.884,4.71-3.943-0.814-6.801c-6.034-3.12-3.911-5.456-6.508-4.458
		c-2.442,0.938-11.418-1.342-13.958-1.904c6.324-1.016,13.39-2.555,22.506-1.214c22.932,3.374,20.757-1.874,15.122-3.083
		c-22.518-4.83-25.423-7.65,8.695-8.99c15.697-0.615,18.895-5.576,4.858-7.539c-22.562-3.155-22.921-4.976-1.019-5.155
		c18.379-0.151,22.235-0.967,21.494-4.548c-0.982-4.76-14.809,0.232-14.809-3.885c0-4.303,25.473-4.659,28.369-7.554
		c2.069-2.069-4.663-5.654-10.178-5.418c-30.088,1.28-0.111-6.93,9.054-5.382c10.568,1.786,18.63-10.491,6.314-8.683
		c-2.418,0.355-4.859-0.103-5.424-1.017c-0.987-1.598,0.808-1.972,11.632-2.426c4.354-0.182,11.776-6.006,11.776-9.238
		c0-2.764,8.161-10.575,6.952-12.526c-0.464-0.752-6.117-1.86-12.561-2.465c-14.752-1.382-13.718-0.347-5.706-3.351
		c11.576-4.343,24.039-3.142,28.409-8.315c2.524-2.99,2.533-3.364,0.144-6.005c-3.217-3.551-1.2-3.027,3.985-3.344
		c4.521-0.273,5.151-4.357,0.758-4.899c-30.363-3.751-35.265-1.062,2.551-8.18c20.315-3.824,12.745-10.443,7.608-8.344
		c-1.419,0.58-8.753,1.153-16.298,1.275c-12.599,0.2-13.278,0.067-8.338-1.64c8.558-2.954,38.731-3.972,38.731-11.828
		c0-6.051-17.653,0.796-12.709-4.146c4.4-4.401,21.047-6.797,21.047-13.215c0-4.519-10.505,0.216-6.064-2.926
		c1.25-0.887,3.321-1.623,4.602-1.635c2.235-0.021,12.073-11.383,12.073-13.942c0-0.682-1.758-1.24-3.908-1.24
		c-8.887,0,16.252-11.002,10.445-16.809c-1.299-1.299-2.964-1.119-6.655,0.723c-6.96,3.476-10.475,1.387,3.243-5.535
		c8.472-4.271,6.729-1.227,6.729-11.982c0-17.942,7.737-9.323,7.183-28.013c-0.46-15.496,5.909-12.979,6.483-22.375
		c0.161-2.651,1.055-7.18,1.989-10.061C5001.056,433.944,4999.577,420.1,4996.903,419.21z"/>
	<path fill="#202020" d="M229.397,3559.801c-5.21,0-2.535,16.921-8.395,35.625c-3.481,11.1-4.213,45.456-0.996,46.741
		c4.067,1.628,4.937-0.44,5.248-12.469C225.994,3601.119,240.49,3559.801,229.397,3559.801z"/>
	<path fill="#202020" d="M199.188,3598.677c-4.851-1.862-8.864,17.867-5.891,28.962
		C197.38,3642.87,203.557,3600.352,199.188,3598.677z"/>
	<path fill="#202020" d="M141.291,3633.501c-3.288,4.122-3.653,4.22-8.407,2.238c-6.473-2.698-10.769-2.453-14.727-2.983
		c-1.316-0.176-0.861-28.956,0.605-38.16c0.665-4.176-1.386-8.847-3.121-7.111c-2.032,2.032-1.698,39.608-5.95,46.102
		c-8.41,12.834,38.878,11.526,42.098,8.304C154.515,3639.163,150.098,3622.454,141.291,3633.501z"/>
	<path fill="#202020" d="M3069.711,3782.618c-0.173,0.011-0.361,0.022-0.523,0.031
		C3069.457,3782.675,3069.605,3782.652,3069.711,3782.618z"/>
</g>
</svg>
